<?xml version="1.0" encoding="utf-8"?>
<!-- Generator: Adobe Illustrator 24.1.1, SVG Export Plug-In . SVG Version: 6.00 Build 0)  -->
<svg version="1.1" id="Layer_1" xmlns="http://www.w3.org/2000/svg" xmlns:xlink="http://www.w3.org/1999/xlink" x="0px" y="0px"
	 viewBox="0 0 512 512" style="enable-background:new 0 0 512 512;" xml:space="preserve">
<style type="text/css">
	.st0{fill:#4F5D73;}
	.st1{fill:#465162;}
	.st2{fill:#E0E0D1;}
	.st3{fill:#F5CF87;}
	.st4{fill:#E0995E;}
	.st5{fill:#76C2AF;}
</style>
<g id="XMLID_1_">
	<path id="XMLID_3_" class="st0" d="M256,0c141,0,256,115,256,256S397,512,256,512S0,397,0,256S115,0,256,0"/>
	<path id="XMLID_4_" class="st1" d="M353.7,296.2c-8.7,0-15.8,7.1-15.8,15.8s7.1,15.8,15.8,15.8s15.8-7.1,15.8-15.8
		S362.3,296.2,353.7,296.2"/>
	<path id="XMLID_5_" class="st1" d="M353.7,392.3c-8.7,0-15.8,7.1-15.8,15.8c0,8.7,7.1,15.8,15.8,15.8s15.8-7.1,15.8-15.8
		C369.4,399.4,362.3,392.3,353.7,392.3"/>
	<path id="XMLID_6_" class="st1" d="M161.5,127.6c-8.7,0-15.8,7.1-15.8,15.8v32.3h-32.3c-8.7,0-15.8,7.1-15.8,15.8
		s7.1,15.8,15.8,15.8h32.3v33.1c0,8.7,7.1,15.8,15.8,15.8c8.7,0,15.8-7.1,15.8-15.8V208h32.3c8.7,0,15.8-7.1,15.8-15.8
		c0-8.7-7.1-15.8-15.8-15.8h-32.3v-32.3C177.2,135.5,170.1,127.6,161.5,127.6"/>
	<path id="XMLID_7_" class="st1" d="M401.7,175.7h-96.1c-8.7,0-15.8,7.1-15.8,15.8s7.1,15.8,15.8,15.8h96.1
		c8.7,0,15.8-7.1,15.8-15.8S410.4,175.7,401.7,175.7"/>
	<path id="XMLID_8_" class="st1" d="M401.7,344.2h-96.1c-8.7,0-15.8,7.1-15.8,15.8c0,8.7,7.1,15.8,15.8,15.8h96.1
		c8.7,0,15.8-7.1,15.8-15.8C417.5,351.3,410.4,344.2,401.7,344.2"/>
	<path id="XMLID_9_" class="st1" d="M204.8,308.8c-3.9,0-7.9,1.6-11,4.7l-32.3,32.3L130,313.5c-3.2-3.2-7.1-4.7-11-4.7
		s-7.9,1.6-11,4.7c-6.3,6.3-6.3,15.8,0,22.1l32.3,32.3l-32.3,32.3c-6.3,6.3-6.3,15.8,0,22.1c3.2,3.2,7.1,4.7,11,4.7s7.9-1.6,11-4.7
		l32.3-32.3l32.3,32.3c3.2,3.2,7.1,4.7,11,4.7s7.9-1.6,11-4.7c6.3-6.3,6.3-15.8,0-22.1l-32.3-32.3l32.3-32.3
		c6.3-6.3,6.3-15.8,0-22.1C212.7,310.4,208.7,308.8,204.8,308.8"/>
	<circle id="XMLID_10_" class="st2" cx="353.7" cy="296.2" r="15.8"/>
	<circle id="XMLID_11_" class="st2" cx="353.7" cy="392.3" r="15.8"/>
	<path id="XMLID_12_" class="st3" d="M225.3,175.7c0,8.7-7.1,15.8-15.8,15.8h-96.1c-8.7,0-15.8-7.1-15.8-15.8
		c0-8.7,7.1-15.8,15.8-15.8h96.1C218.2,159.9,225.3,167,225.3,175.7z"/>
	<path id="XMLID_13_" class="st4" d="M417.5,175.7c0,8.7-7.1,15.8-15.8,15.8h-96.1c-8.7,0-15.8-7.1-15.8-15.8
		c0-8.7,7.1-15.8,15.8-15.8h96.1C410.4,159.9,417.5,167,417.5,175.7z"/>
	<path id="XMLID_14_" class="st3" d="M161.5,240.2c-8.7,0-15.8-7.1-15.8-15.8v-96.9c0-8.7,7.1-15.8,15.8-15.8
		c8.7,0,15.8,7.1,15.8,15.8v96.1C177.2,233.2,170.1,240.2,161.5,240.2z"/>
	<path id="XMLID_15_" class="st2" d="M417.5,344.2c0,8.7-7.1,15.8-15.8,15.8h-96.1c-8.7,0-15.8-7.1-15.8-15.8
		c0-8.7,7.1-15.8,15.8-15.8h96.1C410.4,327.7,417.5,335.6,417.5,344.2z"/>
	<path id="XMLID_16_" class="st5" d="M215.8,406.4c-6.3,6.3-15.8,6.3-22.1,0l-86.6-86.6c-6.3-6.3-6.3-15.8,0-22.1
		c6.3-6.3,15.8-6.3,22.1,0l86.6,86.6C222.1,390.7,222.1,400.1,215.8,406.4z"/>
	<path id="XMLID_17_" class="st5" d="M107.1,406.4c-6.3-6.3-6.3-15.8,0-22.1l86.6-86.6c6.3-6.3,15.8-6.3,22.1,0
		c6.3,6.3,6.3,15.8,0,22.1l-86.6,86.6C122.9,412.8,113.4,412.8,107.1,406.4z"/>
</g>
</svg>
